<?xml version="1.0" encoding="utf-8" ?>
<svg baseProfile="full" height="200mm" version="1.1" viewBox="0,0,200,200" width="200mm" xmlns="http://www.w3.org/2000/svg" xmlns:ev="http://www.w3.org/2001/xml-events" xmlns:xlink="http://www.w3.org/1999/xlink"><defs /><rect fill="#1a1a1a" height="200" width="200" x="0" y="0" /><text alignment-baseline="middle" fill="#e1ed5e" style="dominant-baseline: central; font-size:9.0px; font-family:Arial;" text-anchor="middle" x="100.0" y="100.0">2024</text><line stroke="#e1ed5e" stroke-width="0.3" x1="100.0" x2="100.0" y1="15.0" y2="10.0" /><path d="M 100.0 14.0 a86.0,86.0 0 0,1 42.35913384403234,11.155469271406648" fill="none" id="id97" stroke="none" /><text fill="#e1ed5e" style="font-size:6.75px; font-family:Arial;" text-anchor="middle"><textPath startOffset="22.145653131862478" xlink:href="#id97">January</textPath></text><path d="M 100.0 79.0 l 0.0 -33.11732107884184 a54.11732107884184,54.11732107884184 0 0,0 0.928995779080775,0.007974311458762977 l -0.5685028542319203 33.112441165577515" fill="#adff20" stroke="none" /><path d="M 100.72087961077811 79.0123766808444 l 1.0654572273132188 -31.0196246574168 a52.037917342989594,52.037917342989594 0 0,0 0.8925103475679919,0.03832823456023609 l -1.5977933354820468 30.996763854430732" fill="#caff1d" stroke="none" /><path d="M 105.3480935250658 79.69241777938227 l 7.974144245702371 -30.2791245421749 a52.31153716271059,52.31153716271059 0 0,0 0.8664250271850835,0.23614799398025302 l -8.492750673822147 30.137776054050505" fill="#c6ff1e" stroke="none" /><path d="M 107.06938296918511 80.22567764915836 l 10.980627117538239 -30.71476834443208 a53.618570881424944,53.618570881424944 0 0,0 0.8640526694798316,0.3172921086095402 l -11.506268938672195 30.52174538681382" fill="#b4ff20" stroke="none" /><path d="M 109.06512990194946 81.05736502329252 l 10.925163881476605 -22.829390610609465 a46.308897279196195,46.308897279196195 0 0,0 0.7141267500877827,0.3493151788157366 l -11.315450880826456 22.638481681696508" fill="#ffe115" stroke="none" /><line stroke="#e1ed5e" stroke-width="0.3" x1="143.13028292997686" x2="145.6673583964461" y1="26.7553504044142" y2="22.446841604673864" /><path d="M 143.63769802327073 25.89364864446614 a86.0,86.0 0 0,1 29.32050498858742,28.57503671076993" fill="none" id="id98" stroke="none" /><text fill="#e1ed5e" style="font-size:6.75px; font-family:Arial;" text-anchor="middle"><textPath startOffset="20.669276256404974" xlink:href="#id98">February</textPath></text><path d="M 113.03279911837588 83.53348406188908 l 11.137806840581446 -14.072255099631294 a38.94656247884819,38.94656247884819 0 0,0 0.5206770196784468,0.419420550260626 l -11.377734630615151 13.87898625557726" fill="#ff6e0a" stroke="none" /><path d="M 115.16444852881244 85.47280134310134 l 12.12766372075454 -11.618027505630703 a37.794605992558964,37.794605992558964 0 0,0 0.4447960184427399,0.4723579576561939 l -12.32531557293354 11.408128088030015" fill="#ff5b08" stroke="none" /><path d="M 117.21940702142032 87.97951657250589 l 9.411813908674315 -6.5701770665588475 a32.47821709750478,32.47821709750478 0 0,0 0.31520923687673624,0.45989969674533254 l -9.523212882366376 6.407642634743466" fill="#ff0000" stroke="none" /><line stroke="#e1ed5e" stroke-width="0.3" x1="172.87174338648825" x2="177.1583165268699" y1="56.24261187166439" y2="53.66864786411523" /><path d="M 173.72905801456457 55.72781907015455 a86.0,86.0 0 0,1 12.242430191666344,42.057860355516425" fill="none" id="id99" stroke="none" /><text fill="#e1ed5e" style="font-size:6.75px; font-family:Arial;" text-anchor="middle"><textPath startOffset="22.145653131862474" xlink:href="#id99">March</textPath></text><path d="M 118.18653347947321 89.5 l 12.827412406922551 -7.405910006143083 a35.81182001228616,35.81182001228616 0 0,0 0.3028087796210381,0.5350340990135096 l -12.952654551564965 7.184619137030455" fill="#ff3a05" stroke="none" /><path d="M 118.36410011445183 89.81374322990088 l 21.572081275380913 -11.965669843171428 a45.66844026985537,45.66844026985537 0 0,0 0.37438258896522,0.6888217961062129 l -21.774309213961477 11.593593213590612" fill="#ffd814" stroke="none" /><path d="M 120.592083275326 95.88100663000786 l 23.155587839712148 -4.631766078001883 a44.61428604052966,44.61428604052966 0 0,0 0.1437721025498596,0.7522763928486456 l -23.231686234544163 4.233587120119923" fill="#ffc812" stroke="none" /><path d="M 120.77682067341334 96.94652285012252 l 30.858884378884913 -4.535193319650295 a52.19036267111987,52.19036267111987 0 0,0 0.12266098003771002,0.887513748054034 l -30.932189875477835 4.004791263396176" fill="#c8ff1d" stroke="none" /><path d="M 120.86939407059847 97.66154086499901 l 23.49496882381342 -2.6326602625235798 a44.64200626194476,44.64200626194476 0 0,0 0.07879868414041781,0.7623057886547833 l -23.5366999004355 2.2289499515858653" fill="#ffc812" stroke="none" /><path d="M 120.93736805541906 98.37931529534042 l 25.530018757003017 -1.9761849149152169 a46.606389135347925,46.606389135347925 0 0,0 0.05489797388609564,0.7982044918547561 l -25.56018069205418 1.5376369989061267" fill="#ffe615" stroke="none" /><line stroke="#e1ed5e" stroke-width="0.3" x1="184.99686870605535" x2="189.99668451229388" y1="99.2704041080226" y2="99.22748670261217" /><path d="M 185.99683186730306 99.26182062694052 a86.0,86.0 0 0,1 -10.086455211305974,41.156179273409016" fill="none" id="id100" stroke="none" /><text fill="#e1ed5e" style="font-size:6.75px; font-family:Arial;" text-anchor="middle"><textPath startOffset="21.40746469413373" xlink:href="#id100">April</textPath></text><path d="M 120.98066250479742 100.90099992219065 l 48.208799052270294 2.070293261000116 a69.25323222592161,69.25323222592161 0 0,0 -0.06120142452895071,1.1872912857696838 l -48.16615603828477 -2.8975563401465307" fill="#37ff77" stroke="none" /><path d="M 120.93736805541906 101.62068470465957 l 33.51522462886416 2.594290351368745 a54.61548191459447,54.61548191459447 0 0,0 -0.08037936621891288,0.9341300757694176 l -33.465751639947506 -3.1692414745138198" fill="#a7ff21" stroke="none" /><path d="M 120.51834098615036 104.47187691870673 l 61.555022958451104 13.415630756120176 a84.0,84.0 0 0,0 -0.3191565537693437,1.4062626642439322 l -61.315655543124095 -14.470327754303124" fill="#4dd2ff" stroke="none" /><path d="M 119.0197475246899 108.90220220490707 l 14.700915271581986 6.8807706398280875 a37.23150992422309,37.23150992422309 0 0,0 -0.2759045334133571,0.5765343598379226 l -14.580631480208716 -7.132117501731114" fill="#ff5107" stroke="none" /><line stroke="#e1ed5e" stroke-width="0.3" x1="174.33088141563837" x2="178.70328620479359" y1="141.23008692659167" y2="143.65538615756765" /><path d="M 175.20536237346943 141.71514677278685 a86.0,86.0 0 0,1 -30.301960400862466,31.631185727798858" fill="none" id="id101" stroke="none" /><text fill="#e1ed5e" style="font-size:6.75px; font-family:Arial;" text-anchor="middle"><textPath startOffset="22.145653131862474" xlink:href="#id101">May</textPath></text><path d="M 117.01052211995028 112.31430620078461 l 15.913768216309895 11.520340953798232 a40.646024395133885,40.646024395133885 0 0,0 -0.4140048823840759,0.5616771348938643 l -15.71366131434199 -11.791824397960974" fill="#ff890c" stroke="none" /><line stroke="#e1ed5e" stroke-width="0.3" x1="143.1302829299769" x2="145.66735839644613" y1="173.24464959558577" y2="177.55315839532614" /><path d="M 143.63769802327073 174.10635135553383 a86.0,86.0 0 0,1 -40.68552437913181,11.842963189579606" fill="none" id="id102" stroke="none" /><text fill="#e1ed5e" style="font-size:6.75px; font-family:Arial;" text-anchor="middle"><textPath startOffset="21.407464694133747" xlink:href="#id102">June</textPath></text><line stroke="#e1ed5e" stroke-width="0.3" x1="101.45913802915013" x2="101.54496967792366" y1="184.9874750549273" y2="189.98673829345242" /><path d="M 101.47630435890484 185.9873277026323 a86.0,86.0 0 0,1 -42.54439059252881,-10.42667462771756" fill="none" id="id103" stroke="none" /><text fill="#e1ed5e" style="font-size:6.75px; font-family:Arial;" text-anchor="middle"><textPath startOffset="22.145653131862474" xlink:href="#id103">July</textPath></text><line stroke="#e1ed5e" stroke-width="0.3" x1="58.13341422392154" x2="55.67067388415222" y1="173.97424548756322" y2="178.32567169271397" /><path d="M 57.64086615596768 174.84453072859336 a86.0,86.0 0 0,1 -31.369924170532247,-30.572349798747897" fill="none" id="id104" stroke="none" /><text fill="#e1ed5e" style="font-size:6.75px; font-family:Arial;" text-anchor="middle"><textPath startOffset="22.145653131862474" xlink:href="#id104">August</textPath></text><line stroke="#e1ed5e" stroke-width="0.3" x1="26.387840678322732" x2="22.057713659400548" y1="142.50000000000003" y2="145.00000000000006" /><path d="M 25.521815274538298 143.00000000000003 a86.0,86.0 0 0,1 -11.493303480769221,-40.785679425670985" fill="none" id="id105" stroke="none" /><text fill="#e1ed5e" style="font-size:6.75px; font-family:Arial;" text-anchor="middle"><textPath startOffset="21.40746469413373" xlink:href="#id105">September</textPath></text><line stroke="#e1ed5e" stroke-width="0.3" x1="15.003131293944662" x2="10.003315487706104" y1="100.72959589197737" y2="100.7725132973878" /><path d="M 14.003168132696942 100.73817937305945 a86.0,86.0 0 0,1 10.791469493833604,-42.45332614584628" fill="none" id="id106" stroke="none" /><text fill="#e1ed5e" style="font-size:6.75px; font-family:Arial;" text-anchor="middle"><textPath startOffset="22.145653131862435" xlink:href="#id106">October</textPath></text><line stroke="#e1ed5e" stroke-width="0.3" x1="26.387840678322718" x2="22.05771365940052" y1="57.49999999999999" y2="54.99999999999999" /><path d="M 25.521815274538284 56.99999999999999 a86.0,86.0 0 0,1 29.574782752854787,-30.34633250058573" fill="none" id="id107" stroke="none" /><text fill="#e1ed5e" style="font-size:6.75px; font-family:Arial;" text-anchor="middle"><textPath startOffset="21.40746469413373" xlink:href="#id107">November</textPath></text><line stroke="#e1ed5e" stroke-width="0.3" x1="56.869717070023135" x2="54.33264160355391" y1="26.7553504044142" y2="22.446841604673864" /><path d="M 56.362301976729285 25.89364864446614 a86.0,86.0 0 0,1 42.16139366436587,-11.88097634709845" fill="none" id="id108" stroke="none" /><text fill="#e1ed5e" style="font-size:6.75px; font-family:Arial;" text-anchor="middle"><textPath startOffset="22.145653131862474" xlink:href="#id108">December</textPath></text></svg>