<?xml version="1.0" encoding="utf-8" ?>
<svg baseProfile="full" height="200mm" version="1.1" viewBox="0,0,200,200" width="200mm" xmlns="http://www.w3.org/2000/svg" xmlns:ev="http://www.w3.org/2001/xml-events" xmlns:xlink="http://www.w3.org/1999/xlink"><defs /><rect fill="#1a1a1a" height="200" width="200" x="0" y="0" /><text alignment-baseline="middle" fill="#e1ed5e" style="dominant-baseline: central; font-size:9.0px; font-family:Arial;" text-anchor="middle" x="100.0" y="100.0">2024</text><line stroke="#e1ed5e" stroke-width="0.3" x1="100.0" x2="100.0" y1="15.0" y2="10.0" /><path d="M 100.0 14.0 a86.0,86.0 0 0,1 42.35913384403234,11.155469271406648" fill="none" id="id97" stroke="none" /><text fill="#e1ed5e" style="font-size:6.75px; font-family:Arial;" text-anchor="middle"><textPath startOffset="22.145653131862478" xlink:href="#id97">January</textPath></text><path d="M 100.0 79.0 l 0.0 -43.23837247209789 a64.2383724720979,64.2383724720979 0 0,0 1.102737084761749,0.009465671609099858 l -0.7422441599128942 43.23200119868323" fill="#3fff2d" stroke="none" /><path d="M 100.72087961077811 79.0123766808444 l 1.3910737628198495 -40.49959480988807 a61.52347796005075,61.52347796005075 0 0,0 1.055198660926309,0.04531477074057068 l -2.086098184346995 40.46974747072167" fill="#63ff29" stroke="none" /><path d="M 105.3480935250658 79.69241777938227 l 10.411138576730949 -39.532788958586394 a61.88071928559997,61.88071928559997 0 0,0 1.0249173852890914,0.27934579096571127 l -11.088237362954734 39.34824267347654" fill="#5eff2a" stroke="none" /><path d="M 107.06938296918511 80.22567764915836 l 14.33643875224768 -40.1015707432698 a63.58719821935251,63.58719821935251 0 0,0 1.0246951282546863,0.37628224460157367 l -15.022723032156492 39.8495576496595" fill="#48ff2c" stroke="none" /><path d="M 109.06512990194946 81.05736502329252 l 14.264025284575231 -29.80632679142618 a54.04360050170519,54.04360050170519 0 0,0 0.8334031483548874,0.407659242224717 l -14.773588682192186 29.557073799104245" fill="#cdff1d" stroke="none" /><line stroke="#e1ed5e" stroke-width="0.3" x1="143.13028292997686" x2="145.6673583964461" y1="26.7553504044142" y2="22.446841604673864" /><path d="M 143.63769802327073 25.89364864446614 a86.0,86.0 0 0,1 29.32050498858742,28.57503671076993" fill="none" id="id98" stroke="none" /><text fill="#e1ed5e" style="font-size:6.75px; font-family:Arial;" text-anchor="middle"><textPath startOffset="20.669276256404974" xlink:href="#id98">February</textPath></text><path d="M 113.03279911837588 83.53348406188908 l 14.541654487959626 -18.37290540716392 a44.43124769080361,44.43124769080361 0 0,0 0.5940018362546556,0.4784858321029965 l -14.85490709456954 18.120571281267512" fill="#ff980e" stroke="none" /><path d="M 115.16444852881244 85.47280134310134 l 15.83402352883405 -15.168636360520095 a42.927239455740036,42.927239455740036 0 0,0 0.505200800252038,0.5365057426746004 l -16.09208016282235 14.894589157900999" fill="#ff7e0b" stroke="none" /><path d="M 117.21940702142032 87.97951657250589 l 12.288177369555616 -8.5781021518979 a35.986098211144025,35.986098211144025 0 0,0 0.34925410225727743,0.509572172778671 l -12.433621208628217 8.365895244049181" fill="#ff0000" stroke="none" /><line stroke="#e1ed5e" stroke-width="0.3" x1="172.87174338648825" x2="177.1583165268699" y1="56.24261187166439" y2="53.66864786411523" /><path d="M 173.72905801456457 55.72781907015455 a86.0,86.0 0 0,1 12.242430191666344,42.057860355516425" fill="none" id="id99" stroke="none" /><text fill="#e1ed5e" style="font-size:6.75px; font-family:Arial;" text-anchor="middle"><textPath startOffset="22.145653131862474" xlink:href="#id99">March</textPath></text><path d="M 118.18653347947321 89.5 l 16.74762382450301 -9.669245123363405 a40.338490246726806,40.338490246726806 0 0,0 0.3410842844394916,0.6026632485396806 l -16.911141473963877 9.380325104724607" fill="#ff5007" stroke="none" /><path d="M 118.36410011445183 89.81374322990088 l 28.16476861044185 -15.622522375088469 a53.20741213199021,53.20741213199021 0 0,0 0.43618587778358203,0.8025328864825072 l -28.42879983784077 15.136734655131358" fill="#d9ff1c" stroke="none" /><path d="M 120.592083275326 95.88100663000786 l 30.23221381464677 -6.0472894654580935 a51.83109569920536,51.83109569920536 0 0,0 0.16702868671636084,0.8739646685048297 l -30.331568793645285 5.5274222319199495" fill="#eeff19" stroke="none" /><path d="M 120.77682067341334 96.94652285012252 l 40.28973037013207 -5.92120291134573 a61.722512412856744,61.722512412856744 0 0,0 0.14506402093159237,1.0496109918998326 l -40.38543890761888 5.228703611245811" fill="#60ff29" stroke="none" /><path d="M 120.86939407059847 97.66154086499901 l 30.67531370686276 -3.4372328834354624 a51.867287553483095,51.867287553483095 0 0,0 0.09155220276538467,0.8856845122918969 l -30.729798302109813 2.910143848860634" fill="#eeff19" stroke="none" /><path d="M 120.93736805541906 98.37931529534042 l 33.33229936101904 -2.580130778737295 a54.43200944496124,54.43200944496124 0 0,0 0.064115823785431,0.9322300063511286 l -33.37167914596953 2.007557348231832" fill="#c7ff1e" stroke="none" /><line stroke="#e1ed5e" stroke-width="0.3" x1="184.99686870605535" x2="189.99668451229388" y1="99.2704041080226" y2="99.22748670261217" /><path d="M 185.99683186730306 99.26182062694052 a86.0,86.0 0 0,1 -10.086455211305974,41.156179273409016" fill="none" id="id100" stroke="none" /><text fill="#e1ed5e" style="font-size:6.75px; font-family:Arial;" text-anchor="middle"><textPath startOffset="21.40746469413373" xlink:href="#id100">April</textPath></text><path d="M 120.98066250479742 100.90099992219065 l 62.94198751439227 2.702999766571932 a84.0,84.0 0 0,0 -0.07423364217370931,1.4401128264930774 l -62.886312282761985 -3.7830843864417396" fill="#4dd2ff" stroke="none" /><path d="M 120.93736805541906 101.62068470465957 l 43.757880129824095 3.3871366662238005 a64.88877724717028,64.88877724717028 0 0,0 -0.09549890629920461,1.1098420499387094 l -43.69328760082715 -4.137799763538167" fill="#37ff2e" stroke="none" /><line stroke="#e1ed5e" stroke-width="0.3" x1="174.33088141563837" x2="178.70328620479359" y1="141.23008692659167" y2="143.65538615756765" /><path d="M 175.20536237346943 141.71514677278685 a86.0,86.0 0 0,1 -30.301960400862466,31.631185727798858" fill="none" id="id101" stroke="none" /><text fill="#e1ed5e" style="font-size:6.75px; font-family:Arial;" text-anchor="middle"><textPath startOffset="22.145653131862474" xlink:href="#id101">May</textPath></text><line stroke="#e1ed5e" stroke-width="0.3" x1="143.1302829299769" x2="145.66735839644613" y1="173.24464959558577" y2="177.55315839532614" /><path d="M 143.63769802327073 174.10635135553383 a86.0,86.0 0 0,1 -40.68552437913181,11.842963189579606" fill="none" id="id102" stroke="none" /><text fill="#e1ed5e" style="font-size:6.75px; font-family:Arial;" text-anchor="middle"><textPath startOffset="21.407464694133747" xlink:href="#id102">June</textPath></text><line stroke="#e1ed5e" stroke-width="0.3" x1="101.45913802915013" x2="101.54496967792366" y1="184.9874750549273" y2="189.98673829345242" /><path d="M 101.47630435890484 185.9873277026323 a86.0,86.0 0 0,1 -42.54439059252881,-10.42667462771756" fill="none" id="id103" stroke="none" /><text fill="#e1ed5e" style="font-size:6.75px; font-family:Arial;" text-anchor="middle"><textPath startOffset="22.145653131862474" xlink:href="#id103">July</textPath></text><line stroke="#e1ed5e" stroke-width="0.3" x1="58.13341422392154" x2="55.67067388415222" y1="173.97424548756322" y2="178.32567169271397" /><path d="M 57.64086615596768 174.84453072859336 a86.0,86.0 0 0,1 -31.369924170532247,-30.572349798747897" fill="none" id="id104" stroke="none" /><text fill="#e1ed5e" style="font-size:6.75px; font-family:Arial;" text-anchor="middle"><textPath startOffset="22.145653131862474" xlink:href="#id104">August</textPath></text><line stroke="#e1ed5e" stroke-width="0.3" x1="26.387840678322732" x2="22.057713659400548" y1="142.50000000000003" y2="145.00000000000006" /><path d="M 25.521815274538298 143.00000000000003 a86.0,86.0 0 0,1 -11.493303480769221,-40.785679425670985" fill="none" id="id105" stroke="none" /><text fill="#e1ed5e" style="font-size:6.75px; font-family:Arial;" text-anchor="middle"><textPath startOffset="21.40746469413373" xlink:href="#id105">September</textPath></text><line stroke="#e1ed5e" stroke-width="0.3" x1="15.003131293944662" x2="10.003315487706104" y1="100.72959589197737" y2="100.7725132973878" /><path d="M 14.003168132696942 100.73817937305945 a86.0,86.0 0 0,1 10.791469493833604,-42.45332614584628" fill="none" id="id106" stroke="none" /><text fill="#e1ed5e" style="font-size:6.75px; font-family:Arial;" text-anchor="middle"><textPath startOffset="22.145653131862435" xlink:href="#id106">October</textPath></text><line stroke="#e1ed5e" stroke-width="0.3" x1="26.387840678322718" x2="22.05771365940052" y1="57.49999999999999" y2="54.99999999999999" /><path d="M 25.521815274538284 56.99999999999999 a86.0,86.0 0 0,1 29.574782752854787,-30.34633250058573" fill="none" id="id107" stroke="none" /><text fill="#e1ed5e" style="font-size:6.75px; font-family:Arial;" text-anchor="middle"><textPath startOffset="21.40746469413373" xlink:href="#id107">November</textPath></text><line stroke="#e1ed5e" stroke-width="0.3" x1="56.869717070023135" x2="54.33264160355391" y1="26.7553504044142" y2="22.446841604673864" /><path d="M 56.362301976729285 25.89364864446614 a86.0,86.0 0 0,1 42.16139366436587,-11.88097634709845" fill="none" id="id108" stroke="none" /><text fill="#e1ed5e" style="font-size:6.75px; font-family:Arial;" text-anchor="middle"><textPath startOffset="22.145653131862474" xlink:href="#id108">December</textPath></text></svg>