<?xml version="1.0" encoding="utf-8" ?>
<svg baseProfile="full" height="200mm" version="1.1" viewBox="0,0,200,200" width="200mm" xmlns="http://www.w3.org/2000/svg" xmlns:ev="http://www.w3.org/2001/xml-events" xmlns:xlink="http://www.w3.org/1999/xlink"><defs /><rect fill="#1a1a1a" height="200" width="200" x="0" y="0" /><text alignment-baseline="middle" fill="#e1ed5e" style="dominant-baseline: central; font-size:9.0px; font-family:Arial;" text-anchor="middle" x="100.0" y="100.0">2024</text><line stroke="#e1ed5e" stroke-width="0.3" x1="100.0" x2="100.0" y1="15.0" y2="10.0" /><path d="M 100.0 14.0 a86.0,86.0 0 0,1 42.35913384403234,11.155469271406648" fill="none" id="id97" stroke="none" /><text fill="#e1ed5e" style="font-size:6.75px; font-family:Arial;" text-anchor="middle"><textPath startOffset="22.145653131862478" xlink:href="#id97">January</textPath></text><path d="M 100.0 79.0 l 0.0 -33.11732107884184 a54.11732107884184,54.11732107884184 0 0,0 0.928995779080775,0.007974311458762977 l -0.5685028542319203 33.112441165577515" fill="#acff21" stroke="none" /><path d="M 100.72087961077811 79.0123766808444 l 1.0654572273132188 -31.0196246574168 a52.037917342989594,52.037917342989594 0 0,0 0.8925103475679919,0.03832823456023609 l -1.5977933354820468 30.996763854430732" fill="#c8ff1d" stroke="none" /><path d="M 105.3480935250658 79.69241777938227 l 7.974144245702371 -30.2791245421749 a52.31153716271059,52.31153716271059 0 0,0 0.8664250271850835,0.23614799398025302 l -8.492750673822147 30.137776054050505" fill="#c5ff1e" stroke="none" /><path d="M 107.06938296918511 80.22567764915836 l 10.980627117538239 -30.71476834443208 a53.618570881424944,53.618570881424944 0 0,0 0.8640526694798316,0.3172921086095402 l -11.506268938672195 30.52174538681382" fill="#b3ff20" stroke="none" /><path d="M 109.06512990194946 81.05736502329252 l 10.925163881476605 -22.829390610609465 a46.308897279196195,46.308897279196195 0 0,0 0.7141267500877827,0.3493151788157366 l -11.315450880826456 22.638481681696508" fill="#ffe315" stroke="none" /><line stroke="#e1ed5e" stroke-width="0.3" x1="143.13028292997686" x2="145.6673583964461" y1="26.7553504044142" y2="22.446841604673864" /><path d="M 143.63769802327073 25.89364864446614 a86.0,86.0 0 0,1 29.32050498858742,28.57503671076993" fill="none" id="id98" stroke="none" /><text fill="#e1ed5e" style="font-size:6.75px; font-family:Arial;" text-anchor="middle"><textPath startOffset="20.669276256404974" xlink:href="#id98">February</textPath></text><path d="M 113.03279911837588 83.53348406188908 l 11.137806840581446 -14.072255099631294 a38.94656247884819,38.94656247884819 0 0,0 0.5206770196784468,0.419420550260626 l -11.377734630615151 13.87898625557726" fill="#ff710a" stroke="none" /><path d="M 115.16444852881244 85.47280134310134 l 12.12766372075454 -11.618027505630703 a37.794605992558964,37.794605992558964 0 0,0 0.4447960184427399,0.4723579576561939 l -12.32531557293354 11.408128088030015" fill="#ff5e08" stroke="none" /><path d="M 117.21940702142032 87.97951657250589 l 9.411813908674315 -6.5701770665588475 a32.47821709750478,32.47821709750478 0 0,0 0.31520923687673624,0.45989969674533254 l -9.523212882366376 6.407642634743466" fill="#ff0300" stroke="none" /><line stroke="#e1ed5e" stroke-width="0.3" x1="172.87174338648825" x2="177.1583165268699" y1="56.24261187166439" y2="53.66864786411523" /><path d="M 173.72905801456457 55.72781907015455 a86.0,86.0 0 0,1 12.242430191666344,42.057860355516425" fill="none" id="id99" stroke="none" /><text fill="#e1ed5e" style="font-size:6.75px; font-family:Arial;" text-anchor="middle"><textPath startOffset="22.145653131862474" xlink:href="#id99">March</textPath></text><path d="M 118.18653347947321 89.5 l 12.827412406922551 -7.405910006143083 a35.81182001228616,35.81182001228616 0 0,0 0.3028087796210381,0.5350340990135096 l -12.952654551564965 7.184619137030455" fill="#ff3d05" stroke="none" /><path d="M 118.36410011445183 89.81374322990088 l 21.572081275380913 -11.965669843171428 a45.66844026985537,45.66844026985537 0 0,0 0.37438258896522,0.6888217961062129 l -21.774309213961477 11.593593213590612" fill="#ffda14" stroke="none" /><path d="M 120.592083275326 95.88100663000786 l 23.155587839712148 -4.631766078001883 a44.61428604052966,44.61428604052966 0 0,0 0.1437721025498596,0.7522763928486456 l -23.231686234544163 4.233587120119923" fill="#ffca12" stroke="none" /><path d="M 120.77682067341334 96.94652285012252 l 30.858884378884913 -4.535193319650295 a52.19036267111987,52.19036267111987 0 0,0 0.12266098003771002,0.887513748054034 l -30.932189875477835 4.004791263396176" fill="#c6ff1e" stroke="none" /><path d="M 120.86939407059847 97.66154086499901 l 23.49496882381342 -2.6326602625235798 a44.64200626194476,44.64200626194476 0 0,0 0.07879868414041781,0.7623057886547833 l -23.5366999004355 2.2289499515858653" fill="#ffca12" stroke="none" /><path d="M 120.93736805541906 98.37931529534042 l 25.530018757003017 -1.9761849149152169 a46.606389135347925,46.606389135347925 0 0,0 0.05489797388609564,0.7982044918547561 l -25.56018069205418 1.5376369989061267" fill="#ffe815" stroke="none" /><line stroke="#e1ed5e" stroke-width="0.3" x1="184.99686870605535" x2="189.99668451229388" y1="99.2704041080226" y2="99.22748670261217" /><path d="M 185.99683186730306 99.26182062694052 a86.0,86.0 0 0,1 -10.086455211305974,41.156179273409016" fill="none" id="id100" stroke="none" /><text fill="#e1ed5e" style="font-size:6.75px; font-family:Arial;" text-anchor="middle"><textPath startOffset="21.40746469413373" xlink:href="#id100">April</textPath></text><path d="M 120.98066250479742 100.90099992219065 l 48.208799052270294 2.070293261000116 a69.25323222592161,69.25323222592161 0 0,0 -0.06120142452895071,1.1872912857696838 l -48.16615603828477 -2.8975563401465307" fill="#37ff78" stroke="none" /><path d="M 120.93736805541906 101.62068470465957 l 33.51522462886416 2.594290351368745 a54.61548191459447,54.61548191459447 0 0,0 -0.08037936621891288,0.9341300757694176 l -33.465751639947506 -3.1692414745138198" fill="#a5ff21" stroke="none" /><path d="M 120.51834098615036 104.47187691870673 l 61.555022958451104 13.415630756120176 a84.0,84.0 0 0,0 -0.3191565537693437,1.4062626642439322 l -61.315655543124095 -14.470327754303124" fill="#4dd2ff" stroke="none" /><path d="M 119.0197475246899 108.90220220490707 l 14.700915271581986 6.8807706398280875 a37.23150992422309,37.23150992422309 0 0,0 -0.2759045334133571,0.5765343598379226 l -14.580631480208716 -7.132117501731114" fill="#ff5407" stroke="none" /><line stroke="#e1ed5e" stroke-width="0.3" x1="174.33088141563837" x2="178.70328620479359" y1="141.23008692659167" y2="143.65538615756765" /><path d="M 175.20536237346943 141.71514677278685 a86.0,86.0 0 0,1 -30.301960400862466,31.631185727798858" fill="none" id="id101" stroke="none" /><text fill="#e1ed5e" style="font-size:6.75px; font-family:Arial;" text-anchor="middle"><textPath startOffset="22.145653131862474" xlink:href="#id101">May</textPath></text><path d="M 117.01052211995028 112.31430620078461 l 15.913768216309895 11.520340953798232 a40.646024395133885,40.646024395133885 0 0,0 -0.4140048823840759,0.5616771348938643 l -15.71366131434199 -11.791824397960974" fill="#ff8c0c" stroke="none" /><line stroke="#e1ed5e" stroke-width="0.3" x1="143.1302829299769" x2="145.66735839644613" y1="173.24464959558577" y2="177.55315839532614" /><path d="M 143.63769802327073 174.10635135553383 a86.0,86.0 0 0,1 -40.68552437913181,11.842963189579606" fill="none" id="id102" stroke="none" /><text fill="#e1ed5e" style="font-size:6.75px; font-family:Arial;" text-anchor="middle"><textPath startOffset="21.407464694133747" xlink:href="#id102">June</textPath></text><path d="M 110.34350942703117 118.27599006163325 l 8.56188756454672 15.128034942332905 a38.382846714056505,38.382846714056505 0 0,0 -0.5762102619866698,0.31961411915540955 l -8.300933114403955 -15.272781976921458" fill="#ff6709" stroke="none" /><path d="M 109.3889696526874 118.78422872680471 l 7.777621868974894 15.560453760291544 a38.39595134400323,38.39595134400323 0 0,0 -0.592101681551796,0.28962660304062016 l -7.509359938161028 -15.691674113429388" fill="#ff6809" stroke="none" /><path d="M 105.69591212413111 120.21278271476187 l 4.587306592374942 16.278732778345635 a37.91273255985653,37.91273255985653 0 0,0 -0.6279406440812795,0.17114801487236644 l -4.307184547358967 -16.355081287362143" fill="#ff6008" stroke="none" /><line stroke="#e1ed5e" stroke-width="0.3" x1="101.45913802915013" x2="101.54496967792366" y1="184.9874750549273" y2="189.98673829345242" /><path d="M 101.47630435890484 185.9873277026323 a86.0,86.0 0 0,1 -42.54439059252881,-10.42667462771756" fill="none" id="id103" stroke="none" /><text fill="#e1ed5e" style="font-size:6.75px; font-family:Arial;" text-anchor="middle"><textPath startOffset="22.145653131862474" xlink:href="#id103">July</textPath></text><path d="M 98.19965949673042 120.92268563240118 l -0.9673474872700837 11.242044122591453 a32.283586185934894,32.283586185934894 0 0,0 -0.5517425322680726,-0.05225059145033473 l 1.1601895829231714 -11.223781775635935" fill="#ff0000" stroke="none" /><path d="M 96.05791012581884 120.62667999033965 l -3.2221823169646253 16.859819447004828 a38.1649634625117,38.1649634625117 0 0,0 -0.6424499387419267,-0.12850798060828808 l 3.5111287412375103 -16.802022069733678" fill="#ff6409" stroke="none" /><path d="M 95.70440661134978 120.55596938700252 l -3.151663729766059 15.08185186204381 a36.407635764586246,36.407635764586246 0 0,0 -0.6106732208727884,-0.13309338621171224 l 3.410099367257984 -15.025527017698378" fill="#ff4706" stroke="none" /><path d="M 94.30408787586889 120.21278271476187 l -3.6066106840949432 12.798588971467018 a34.297049307541315,34.297049307541315 0 0,0 -0.5653133439361796,-0.16455447545487223 l 3.8257840404127297 -12.73479080170963" fill="#ff2303" stroke="none" /><path d="M 89.97174638481275 118.45085714620012 l -6.073305555869654 11.174198172139276 a33.71800869496471,33.71800869496471 0 0,0 -0.5061808668995567,-0.2807699941851539 l 6.264230610925313 -11.068295262520973" fill="#ff1902" stroke="none" /><line stroke="#e1ed5e" stroke-width="0.3" x1="58.13341422392154" x2="55.67067388415222" y1="173.97424548756322" y2="178.32567169271397" /><path d="M 57.64086615596768 174.84453072859336 a86.0,86.0 0 0,1 -31.369924170532247,-30.572349798747897" fill="none" id="id104" stroke="none" /><text fill="#e1ed5e" style="font-size:6.75px; font-family:Arial;" text-anchor="middle"><textPath startOffset="22.145653131862474" xlink:href="#id104">August</textPath></text><path d="M 89.34428304082925 118.09573695890944 l -8.977366008177064 15.245530121557332 a38.6923511476594,38.6923511476594 0 0,0 -0.5694542053104361,-0.3419408885406458 l 9.237752970044927 -15.089175232480768" fill="#ff6c0a" stroke="none" /><path d="M 88.1277618465304 117.32195027204791 l -8.389689413398989 12.240807583054886 a35.83995480918568,35.83995480918568 0 0,0 -0.5044984082717,-0.35217907029454104 l 8.598582912844455 -12.094983696955216" fill="#ff3d05" stroke="none" /><path d="M 86.68645165197938 116.24036423190432 l -11.322837555045739 13.812020749522208 a38.859971094130756,38.859971094130756 0 0,0 -0.5122589225039215,-0.4273446122726861 l 11.558270811711553 -13.615613953337652" fill="#ff6f0a" stroke="none" /><path d="M 86.13680546590413 115.77377054828092 l -9.803443009310424 11.154518551383545 a35.850278749907595,35.850278749907595 0 0,0 -0.4587725570586235,-0.41023724945378975 l 9.993480593192418 -10.984585772046373" fill="#ff3d05" stroke="none" /><path d="M 85.60350026404147 115.28858382429668 l -15.252222451991994 16.197331694569293 a43.24823237358302,43.24823237358302 0 0,0 -0.5361288011682905,-0.5135992637950958 l 15.528023739025599 -15.933120300468616" fill="#ffb510" stroke="none" /><path d="M 84.3458050057657 113.99807769240083 l -11.07670824158097 9.904860811994189 a35.85933151841246,35.85933151841246 0 0,0 -0.40638686453443285,-0.46239365243239816 l 11.245106170073996 -9.71325488175049" fill="#ff3d05" stroke="none" /><line stroke="#e1ed5e" stroke-width="0.3" x1="26.387840678322732" x2="22.057713659400548" y1="142.50000000000003" y2="145.00000000000006" /><path d="M 25.521815274538298 143.00000000000003 a86.0,86.0 0 0,1 -11.493303480769221,-40.785679425670985" fill="none" id="id105" stroke="none" /><text fill="#e1ed5e" style="font-size:6.75px; font-family:Arial;" text-anchor="middle"><textPath startOffset="21.40746469413373" xlink:href="#id105">September</textPath></text><path d="M 81.4637452351635 109.86951160357371 l -10.986305680796454 5.849588968895729 a33.4465498680127,33.4465498680127 0 0,0 -0.26548904683927116,-0.5091102533572788 l 11.085102796610675 -5.660132472433947" fill="#ff1402" stroke="none" /><path d="M 81.1358732173502 109.22738970284198 l -10.691869954854804 5.229929371355421 a32.90244699046767,32.90244699046767 0 0,0 -0.2438239626472019,-0.5094983053697957 l 10.780073175461919 -5.045618563920521" fill="#ff0b01" stroke="none" /><path d="M 80.68587082218212 108.24405325689762 l -22.18829911153458 9.470865492892584 a45.12504737088385,45.12504737088385 0 0,0 -0.29798465878135244,-0.7150547035691583 l 22.347609614852416 -9.088578279882144" fill="#ffd213" stroke="none" /><path d="M 80.41425534168474 107.57618678355246 l -11.346185013159184 4.388948106905008 a33.165474912141455,33.165474912141455 0 0,0 -0.20083956026411945,-0.5327507947757437 l 11.41985525723774 -4.193529031935118" fill="#ff0f01" stroke="none" /><path d="M 80.16572619554312 106.89939002012753 l -11.735849532708304 4.082337671747351 a33.425604416708964,33.425604416708964 0 0,0 -0.1838640287088073,-0.5435613303807227 l 11.80419898298948 -3.880274666892467" fill="#ff1402" stroke="none" /><path d="M 79.94057633289273 106.21446072829308 l -11.659220510332124 3.612056317588956 a33.205915522810386,33.205915522810386 0 0,0 -0.1640114169368805,-0.5459406651604528 l 11.719508247272634 -3.4113780488377796" fill="#ff1001" stroke="none" /><path d="M 79.83685265289637 105.86919833188381 l -21.837132445238765 6.356470997030717 a43.74346229066701,43.74346229066701 0 0,0 -0.20368103355525638,-0.7227921331385508 l 21.9430319708686 -5.980670939989172" fill="#ffbd11" stroke="none" /><path d="M 79.56144815229197 104.8234425847677 l -19.18294003919349 4.527121616811973 a40.70989646549923,40.70989646549923 0 0,0 -0.154676550717085,-0.6815334221984055 l 19.25782745146824 -4.197153860674541" fill="#ff8d0d" stroke="none" /><path d="M 79.48165901384964 104.47187691870673 l -12.779180426258087 2.785162895321111 a34.07916605599651,34.07916605599651 0 0,0 -0.11967027229360559,-0.572665574051137 l 12.825108409376059 -2.565380869984565" fill="#ff1f03" stroke="none" /><line stroke="#e1ed5e" stroke-width="0.3" x1="15.003131293944662" x2="10.003315487706104" y1="100.72959589197737" y2="100.7725132973878" /><path d="M 14.003168132696942 100.73817937305945 a86.0,86.0 0 0,1 10.791469493833604,-42.45332614584628" fill="none" id="id106" stroke="none" /><text fill="#e1ed5e" style="font-size:6.75px; font-family:Arial;" text-anchor="middle"><textPath startOffset="22.145653131862435" xlink:href="#id106">October</textPath></text><path d="M 79.00077361379809 100.18025310272382 l -15.010809271202062 0.12884974406997948 a36.0113622710583,36.0113622710583 0 0,0 0.0,-0.6182056935875886 l 15.010809271202062 0.12884974406997396" fill="#ff4006" stroke="none" /><path d="M 79.0935383218832 98.0201363427161 l -16.081546505104907 -1.5229391739542892 a37.153497507456905,37.153497507456905 0 0,0 0.06558053635904272,-0.6344321994070057 l 16.053033576264202 1.7987758956442077" fill="#ff5307" stroke="none" /><path d="M 80.41425534168474 92.42381321644754 l -16.094513634658675 -6.225703623417631 a38.256672759916654,38.256672759916654 0 0,0 0.2421853699090679,-0.6104653393638527 l 15.985269589783478 6.501069979995066" fill="#ff6509" stroke="none" /><path d="M 81.1358732173502 90.77261029715801 l -14.463702608028418 -7.074921730967236 a37.1013418891967,37.1013418891967 0 0,0 0.28476178598388013,-0.569714326325839 l 14.340120908832795 7.322167913456846" fill="#ff5207" stroke="none" /><line stroke="#e1ed5e" stroke-width="0.3" x1="26.387840678322718" x2="22.05771365940052" y1="57.49999999999999" y2="54.99999999999999" /><path d="M 25.521815274538284 56.99999999999999 a86.0,86.0 0 0,1 29.574782752854787,-30.34633250058573" fill="none" id="id107" stroke="none" /><text fill="#e1ed5e" style="font-size:6.75px; font-family:Arial;" text-anchor="middle"><textPath startOffset="21.40746469413373" xlink:href="#id107">November</textPath></text><path d="M 81.99639281039701 89.18935116829357 l -20.708955665472605 -12.43513286049086 a45.15560750659294,45.15560750659294 0 0,0 0.404749138915206,-0.6611273003392999 l 20.492438562102006 12.788797276954703" fill="#ffd213" stroke="none" /><path d="M 82.18462484594161 88.88188828441811 l -13.587839832070692 -8.479817007501019 a37.01676271231832,37.01676271231832 0 0,0 0.3410518427674301,-0.5361901440357936 l 13.44027029767737 8.711820826215485" fill="#ff5107" stroke="none" /><path d="M 82.576782715395 88.27688183743585 l -19.64605764992939 -13.218744362567998 a44.67916349255759,44.67916349255759 0 0,0 0.4336224795376098,-0.6326681566101725 l 19.416245433576467 13.554047254248204" fill="#ffcb12" stroke="none" /><path d="M 82.98947788004972 87.6856937992154 l -16.802454381908632 -12.163681204168851 a41.743134133798854,41.743134133798854 0 0,0 0.42517962321244446,-0.5768378169986657 l 16.591172739112366 12.450325330436382" fill="#ff9d0e" stroke="none" /><path d="M 83.64595745247003 86.82634096563983 l -16.024688862280556 -12.908355019247333 a41.57708148489057,41.57708148489057 0 0,0 0.45250353429268614,-0.5519807357915871 l 15.80073850874924 13.181538036737413" fill="#ff9b0e" stroke="none" /><path d="M 84.10781606972428 86.27271002978789 l -9.700801875718032 -8.379321613429672 a33.81868120101378,33.81868120101378 0 0,0 0.3832605693977532,-0.43608017380230124 l 9.555530242361685 8.544614065043273" fill="#ff1b02" stroke="none" /><path d="M 85.86807049272753 84.46653392183569 l -10.070008894547922 -11.068703781021275 a35.96399954986196,35.96399954986196 0 0,0 0.4602278311597952,-0.4115385645287231 l 9.878516036564735 11.2399378754334" fill="#ff3f05" stroke="none" /><path d="M 86.68645165197937 83.75963576809568 l -18.804795654449265 -22.938793081424603 a50.661567181084806,50.661567181084806 0 0,0 0.6772950456516921,-0.5455809455763179 l 18.408249838442327 23.25822232079432" fill="#dcff1b" stroke="none" /><path d="M 88.12776184653039 82.6780497279521 l -8.441519626628022 -12.316429413120714 a35.93163377179909,35.93163377179909 0 0,0 0.5117754778992707,-0.3443453813445304 l 8.228847860631763 12.459524468522353" fill="#ff3f05" stroke="none" /><path d="M 88.4268655584334 82.4767994020092 l -10.598021312799501 -16.046755038026557 a40.23061109265598,40.23061109265598 0 0,0 0.5795398989813476,-0.3756507607172915 l 10.320995781561127 16.226319640447755" fill="#ff850c" stroke="none" /><line stroke="#e1ed5e" stroke-width="0.3" x1="56.869717070023135" x2="54.33264160355391" y1="26.7553504044142" y2="22.446841604673864" /><path d="M 56.362301976729285 25.89364864446614 a86.0,86.0 0 0,1 42.16139366436587,-11.88097634709845" fill="none" id="id108" stroke="none" /><text fill="#e1ed5e" style="font-size:6.75px; font-family:Arial;" text-anchor="middle"><textPath startOffset="22.145653131862474" xlink:href="#id108">December</textPath></text></svg>